<svg width="40" height="31" viewBox="0 0 40 31" fill="none" xmlns="http://www.w3.org/2000/svg">
<g id="logos:google-gmail" clip-path="url(#clip0_209_211)">
<path id="Vector" d="M9.09094 30.0078V14.5531L4.29797 10.1683L0 7.73499V27.2805C0 28.7895 1.22266 30.0078 2.72734 30.0078H9.09094Z" fill="#4285F4"/>
<path id="Vector_2" d="M30.9087 30.0079H37.2723C38.7815 30.0079 39.9996 28.7851 39.9996 27.2805V7.73523L35.1315 10.5223L30.9087 14.5532V30.0079Z" fill="#34A853"/>
<path id="Vector_3" d="M9.09066 14.5531L8.43848 8.51452L9.09066 2.73499L19.9997 10.9169L30.9088 2.73499L31.6383 8.20249L30.9088 14.5531L19.9997 22.735L9.09066 14.5531Z" fill="#EA4335"/>
<path id="Vector_4" d="M30.9087 2.73495V14.5531L39.9996 7.73495V4.09855C39.9996 0.72589 36.1496 -1.19677 33.4543 0.825889L30.9087 2.73495Z" fill="#FBBC04"/>
<path id="Vector_5" d="M0 7.73502L4.18109 10.871L9.09094 14.5531V2.73502L6.54531 0.825961C3.84531 -1.19685 0 0.725961 0 4.09846V7.73487V7.73502Z" fill="#C5221F"/>
</g>
<defs>
<clipPath id="clip0_209_211">
<rect width="40" height="30.1562" fill="white"/>
</clipPath>
</defs>
</svg>
